<svg width="1100" height="190" viewBox="0 0 1100 190" fill="none" xmlns="http://www.w3.org/2000/svg">
  <defs>
    <linearGradient id="card" x1="0" y1="0" x2="1100" y2="190" gradientUnits="userSpaceOnUse">
      <stop stop-color="#0F172A"/>
      <stop offset="1" stop-color="#172554"/>
    </linearGradient>
  </defs>
  <rect x="1" y="1" width="1098" height="188" rx="20" fill="url(#card)" stroke="#7DD3FC" stroke-opacity="0.22" stroke-width="2"/>
  <text x="38" y="47" fill="#E0E7FF" font-family="ui-sans-serif, system-ui, -apple-system, Segoe UI, sans-serif" font-size="20" font-weight="700">Tools I enjoy working with</text>

  <g transform="translate(38 78)">
    <rect width="154" height="42" rx="21" fill="#1D4ED8" fill-opacity="0.3" stroke="#60A5FA" stroke-opacity="0.7"/>
    <circle cx="24" cy="21" r="7" fill="#60A5FA"/>
    <text x="42" y="27" fill="#DBEAFE" font-family="ui-monospace, SFMono-Regular, Menlo, Consolas, monospace" font-size="14">TypeScript</text>
  </g>
  <g transform="translate(208 78)">
    <rect width="130" height="42" rx="21" fill="#075985" fill-opacity="0.34" stroke="#38BDF8" stroke-opacity="0.7"/>
    <circle cx="24" cy="21" r="7" fill="#38BDF8"/>
    <text x="42" y="27" fill="#E0F2FE" font-family="ui-monospace, SFMono-Regular, Menlo, Consolas, monospace" font-size="14">Python</text>
  </g>
  <g transform="translate(354 78)">
    <rect width="146" height="42" rx="21" fill="#581C87" fill-opacity="0.34" stroke="#C084FC" stroke-opacity="0.7"/>
    <circle cx="24" cy="21" r="7" fill="#C084FC"/>
    <text x="42" y="27" fill="#F3E8FF" font-family="ui-monospace, SFMono-Regular, Menlo, Consolas, monospace" font-size="14">AI Agents</text>
  </g>
  <g transform="translate(516 78)">
    <rect width="160" height="42" rx="21" fill="#312E81" fill-opacity="0.46" stroke="#818CF8" stroke-opacity="0.7"/>
    <circle cx="24" cy="21" r="7" fill="#818CF8"/>
    <text x="42" y="27" fill="#E0E7FF" font-family="ui-monospace, SFMono-Regular, Menlo, Consolas, monospace" font-size="14">Automation</text>
  </g>
  <g transform="translate(692 78)">
    <rect width="176" height="42" rx="21" fill="#0F766E" fill-opacity="0.3" stroke="#2DD4BF" stroke-opacity="0.7"/>
    <circle cx="24" cy="21" r="7" fill="#2DD4BF"/>
    <text x="42" y="27" fill="#CCFBF1" font-family="ui-monospace, SFMono-Regular, Menlo, Consolas, monospace" font-size="14">GitHub Actions</text>
  </g>
  <g transform="translate(884 78)">
    <rect width="178" height="42" rx="21" fill="#164E63" fill-opacity="0.42" stroke="#67E8F9" stroke-opacity="0.7"/>
    <circle cx="24" cy="21" r="7" fill="#67E8F9"/>
    <text x="42" y="27" fill="#CFFAFE" font-family="ui-monospace, SFMono-Regular, Menlo, Consolas, monospace" font-size="14">PowerShell</text>
  </g>

  <text x="38" y="156" fill="#94A3B8" font-family="ui-monospace, SFMono-Regular, Menlo, Consolas, monospace" font-size="13">simple foundations · explicit verification · maintainable delivery</text>
</svg>
